<?xml version="1.0" encoding="UTF-8"?>
<svg version="1.1" xmlns="http://www.w3.org/2000/svg" width="512" height="512">
<path d="M0 0 C7.39808039 5.19058866 12.10177855 11.12453213 14 20 C14.9805313 26.29277679 13.65955256 31.66183167 11.4921875 37.55859375 C11.0940258 38.66250961 11.0940258 38.66250961 10.68782043 39.78872681 C7.58907152 48.28280945 4.21559204 56.66896938 0.82839966 65.05117798 C-1.17150299 70.0011042 -3.15891839 74.95604972 -5.1484375 79.91015625 C-5.75899239 81.42910744 -5.75899239 81.42910744 -6.38188171 82.97874451 C-10.438044 93.07517285 -14.44335976 103.19140677 -18.4375 113.3125 C-19.1358035 115.08122537 -19.83412719 116.84994277 -20.5324707 118.61865234 C-21.594815 121.30946035 -22.65708613 124.00029712 -23.71913147 126.69122314 C-27.57009554 136.44750062 -31.4314601 146.19965612 -35.29299927 155.95175171 C-41.70006698 172.13263104 -48.10279041 188.31522078 -54.5 204.5 C-62.85701266 225.64268017 -71.22422257 246.78131821 -79.59277344 267.91943359 C-83.16706339 276.94781854 -86.74076801 285.97643518 -90.31451416 295.0050354 C-92.29298521 300.00336652 -94.27149455 305.00168249 -96.25 310 C-97.04166685 311.99999993 -97.83333352 313.99999993 -98.625 316 C-100.20833333 320 -101.79166667 324 -103.375 328 C-103.76686493 328.98997482 -104.15872986 329.97994965 -104.56246948 330.99992371 C-105.35423714 333.00017831 -106.14600553 335.00043262 -106.93777466 337.00068665 C-108.91540215 341.99678884 -110.89301695 346.99289605 -112.87060547 351.98901367 C-116.45138932 361.03535726 -120.03223638 370.08167577 -123.6136322 379.1277771 C-124.41785217 381.15918991 -125.22202091 383.190623 -126.02613831 385.22207642 C-128.01213846 390.23925781 -129.99882856 395.25616353 -131.98706055 400.27246094 C-135.53238925 409.21996058 -139.07101164 418.16987409 -142.57922363 427.13200378 C-144.12083579 431.06960381 -145.66627804 435.00569601 -147.21185303 438.94174194 C-147.93334277 440.78259504 -148.65285633 442.62422415 -149.37017822 444.46670532 C-161.51734025 475.66511138 -161.51734025 475.66511138 -172.125 481.0859375 C-179.63866613 484.01090039 -187.57930124 484.12552871 -195.1875 481.5 C-204.84517489 476.94716847 -209.89125291 468.51578344 -214.9520874 459.49252319 C-216.77767516 456.23907678 -218.64643606 453.0104006 -220.5078125 449.77734375 C-220.88511505 449.1192421 -221.2624176 448.46114044 -221.65115356 447.78309631 C-225.26057378 441.50230141 -229.04744795 435.33754424 -232.875 429.1875 C-237.35265377 421.97933548 -241.76834249 414.74241405 -246.0859375 407.4375 C-246.51611176 406.70992996 -246.94628601 405.98235992 -247.38949585 405.23274231 C-249.50151681 401.65713832 -251.60742311 398.07806483 -253.70654297 394.49487305 C-254.47617027 393.187949 -255.2458612 391.88106241 -256.015625 390.57421875 C-256.35975433 389.98265991 -256.70388367 389.39110107 -257.05844116 388.78161621 C-259.124694 385.2818163 -261.38995455 382.11407681 -264 379 C-264.86689453 379.8878418 -265.73378906 380.77568359 -266.62695312 381.69042969 C-269.86689171 385.00314144 -273.12035626 388.30229195 -276.37792969 391.59765625 C-277.78200753 393.02176466 -279.182464 394.44945347 -280.57910156 395.88085938 C-282.59523387 397.94588505 -284.62433519 399.99739086 -286.65625 402.046875 C-287.2711731 402.68244324 -287.88609619 403.31801147 -288.51965332 403.97283936 C-289.11967163 404.57315979 -289.71968994 405.17348022 -290.33789062 405.79199219 C-290.85307251 406.31605652 -291.36825439 406.84012085 -291.89904785 407.38006592 C-293.86589933 408.89660201 -295.60032652 409.79538539 -297.83857727 410.83560181 C-302.0708169 412.88474058 -305.00276839 415.47608713 -308.24487305 418.83837891 C-308.81347046 419.41121109 -309.38206787 419.98404327 -309.96789551 420.57423401 C-311.18966249 421.80779134 -312.40677261 423.04597561 -313.61957359 424.28834915 C-315.54046415 426.25600776 -317.47347006 428.21102786 -319.40986633 430.16342163 C-322.81772016 433.60341945 -326.21464956 437.05397174 -329.60803223 440.50823975 C-335.04744613 446.04520228 -340.49530828 451.57364051 -345.95838356 457.0872612 C-347.85994879 459.01196678 -349.75179832 460.94587028 -351.64323425 462.88052368 C-352.80951198 464.0608954 -353.97618307 465.24087864 -355.14331055 466.42041016 C-355.66445938 466.958629 -356.18560822 467.49684784 -356.72254944 468.05137634 C-361.0512877 472.39469769 -364.75933674 474.2773057 -370.875 474.375 C-376.08797703 474.2508815 -378.84666117 473.15653751 -383 470 C-386.48017186 466.06191079 -387.54170435 462.60182924 -388.21484375 457.5390625 C-387.55427088 449.7322922 -383.73410139 445.01087142 -378.35717773 439.77368164 C-377.68695587 439.10112335 -377.01673401 438.42856506 -376.32620239 437.73562622 C-374.12378958 435.53160782 -371.90414305 433.34588833 -369.68359375 431.16015625 C-368.14465619 429.62801203 -366.60675278 428.09482845 -365.06983948 426.56065369 C-361.85518583 423.35665447 -358.63271248 420.16082532 -355.40356445 416.97143555 C-351.25809472 412.87700331 -347.12574174 408.76965488 -342.9982748 404.65708256 C-339.06394549 400.73751483 -335.12440555 396.82320505 -331.18359375 392.91015625 C-330.4294412 392.16091448 -329.67528866 391.41167271 -328.898283 390.63972664 C-326.7728073 388.53047431 -324.64379708 386.42486486 -322.51342773 384.32055664 C-321.88013046 383.69151932 -321.24683319 383.06248199 -320.59434509 382.41438293 C-316.2302744 378.1151372 -316.2302744 378.1151372 -314 377 C-313.32058998 373.97088419 -312.76365802 370.99473205 -312.2734375 367.93359375 C-312.12089508 367.02497086 -311.96835266 366.11634796 -311.81118774 365.18019104 C-311.32413018 362.26727531 -310.84945017 359.35249309 -310.375 356.4375 C-310.04768597 354.46666202 -309.71957145 352.4959568 -309.390625 350.52539062 C-308.5844407 345.68508754 -307.78935403 340.84307502 -307 336 C-308.2136322 337.22695587 -308.2136322 337.22695587 -309.45178223 338.47869873 C-317.09111665 346.19924397 -324.74108543 353.90911109 -332.40149689 361.60874557 C-336.33912095 365.5672127 -340.27295034 369.52930068 -344.19824219 373.5 C-347.98899847 377.33432969 -351.78954275 381.15870453 -355.5969696 384.97647858 C-357.04528586 386.43216546 -358.49008657 387.89135913 -359.93122864 389.35414886 C-361.95592348 391.40802898 -363.99294758 393.44889706 -366.03320312 395.48730469 C-366.62158966 396.09007233 -367.2099762 396.69283997 -367.81619263 397.31387329 C-372.32097668 401.77491925 -377.21376232 405.19667968 -383.50390625 406.53125 C-389.13945533 406.44570087 -392.44534629 405.39366355 -397 402 C-400.82893143 397.06269369 -402.07984318 393.44992838 -402.328125 387.23046875 C-401.28425408 380.13463189 -396.06253634 375.62932736 -391.22729492 370.82324219 C-390.43670181 370.02578583 -389.6461087 369.22832947 -388.83155823 368.40670776 C-386.22215881 365.77904157 -383.60185784 363.16257647 -380.98046875 360.546875 C-379.16030267 358.72214771 -377.34050912 356.89704876 -375.52107239 355.07159424 C-371.70876307 351.25035446 -367.89095171 347.43473141 -364.0690918 343.62304688 C-359.65672704 339.22217067 -355.25730882 334.80865197 -350.86410064 330.38865924 C-346.62878234 326.12849282 -342.38236008 321.87958659 -338.13137245 317.63504791 C-336.3273705 315.8311994 -334.52647383 314.02423982 -332.72875023 312.21413422 C-330.2155985 309.68611646 -327.69004803 307.17116872 -325.16088867 304.65917969 C-324.4204129 303.90903595 -323.67993713 303.15889221 -322.91702271 302.38601685 C-318.07629562 297.6138965 -314.50911277 295.38990142 -307.625 294.625 C-303.16508471 295.08637055 -299.69525159 296.46004546 -296 299 C-295.01 300.485 -295.01 300.485 -294 302 C-290.89589601 300.61798986 -288.77269394 299.02505805 -286.37151051 296.63157272 C-285.3102455 295.5809061 -285.3102455 295.5809061 -284.22754079 294.50901389 C-283.07292011 293.35077058 -283.07292011 293.35077058 -281.89497375 292.16912842 C-281.0714676 291.35085894 -280.24796144 290.53258946 -279.39950055 289.68952394 C-277.11509758 287.41753738 -274.83523714 285.14110381 -272.55725563 282.8626821 C-270.09933203 280.40640658 -267.63571345 277.95585414 -265.17288208 275.50450134 C-259.78967165 270.14413844 -254.41393364 264.77632287 -249.03960824 259.40705395 C-245.68455802 256.05526026 -242.32787788 252.70510223 -238.97084618 249.35529327 C-229.6778792 240.0818899 -220.38649355 230.80691053 -211.10184956 221.52517319 C-210.50775174 220.93126294 -209.91365392 220.33735269 -209.30155314 219.72544517 C-208.09717126 218.52142954 -206.89279066 217.31741264 -205.68841133 216.11339447 C-205.09054956 215.51571551 -204.49268778 214.91803654 -203.87670898 214.30224609 C-203.27811973 213.70383739 -202.67953048 213.10542869 -202.06280216 212.48888639 C-192.35730441 202.78693236 -182.64011602 193.0967798 -172.91772375 183.41175875 C-162.93808756 173.47017662 -152.96781001 163.5192909 -143.00703114 153.55881429 C-137.4133166 147.96568487 -131.81569659 142.37659319 -126.2078495 136.79763031 C-121.43420161 132.04845719 -116.66920725 127.29081107 -111.91532055 122.52185383 C-109.48908492 120.08843398 -107.05896663 117.65925361 -104.61783028 115.24077415 C-101.97489997 112.61814825 -99.34774175 109.98068276 -96.72407532 107.33880615 C-95.55941639 106.19394717 -95.55941639 106.19394717 -94.37122899 105.02595973 C-90.27633164 100.87117055 -90.27633164 100.87117055 -87.95474529 95.59991837 C-87.80755517 93.02177932 -87.80755517 93.02177932 -89 91.0625 C-91.48806907 89.74071331 -93.25612992 89.93097107 -95.99316406 90.38208008 C-99.99141516 91.61317175 -103.09814871 94.28941082 -106.375 96.8125 C-107.97581534 98.00751195 -109.57739578 99.20149958 -111.1796875 100.39453125 C-111.9850293 100.99990723 -112.79037109 101.6052832 -113.62011719 102.22900391 C-117.19708195 104.8908117 -120.84580531 107.44583181 -124.5 110 C-130.36613585 114.1220943 -136.19428296 118.2932755 -142 122.5 C-151.30975489 129.24348241 -160.70052336 135.86834937 -170.10449219 142.47949219 C-178.86878716 148.6433473 -187.59275544 154.85741881 -196.26928711 161.14428711 C-202.01573517 165.30294164 -207.80302685 169.40045858 -213.60546875 173.48046875 C-218.7656687 177.11454672 -223.88921666 180.79681272 -229 184.5 C-238.30975489 191.24348241 -247.70052336 197.86834937 -257.10449219 204.47949219 C-265.86878716 210.6433473 -274.59275544 216.85741881 -283.26928711 223.14428711 C-289.01573517 227.30294164 -294.80302685 231.40045858 -300.60546875 235.48046875 C-305.76567226 239.11454922 -310.88904419 242.79704677 -316 246.5 C-355.04537335 274.75746612 -355.04537335 274.75746612 -368 273 C-371.19262695 271.70117188 -371.19262695 271.70117188 -374.55078125 269.96875 C-375.15705856 269.65631348 -375.76333588 269.34387695 -376.38798523 269.02197266 C-382.86703707 265.63413982 -389.09769509 261.84685618 -395.3125 258 C-397.15097006 256.87112958 -398.99069258 255.74431857 -400.83044434 254.61753845 C-402.07474713 253.85523129 -403.31864498 253.09226275 -404.56213379 252.32862854 C-410.55458527 248.650429 -416.58827971 245.04248936 -422.625 241.4375 C-425.68348078 239.60206764 -428.7405122 237.76424984 -431.796875 235.92529297 C-434.02974884 234.58318602 -436.2639758 233.24356879 -438.5 231.90673828 C-441.47471234 230.12711031 -444.44254089 228.33643428 -447.40643311 226.53884888 C-449.07102539 225.53262688 -450.74172078 224.53652278 -452.41259766 223.54077148 C-461.4618759 218.03111864 -468.07637869 213.16949481 -471.33984375 202.828125 C-473.49929893 193.57696789 -471.65246554 186.10759967 -466.8203125 178.02734375 C-459.66248254 168.39180342 -444.55068628 164.68739463 -433.75372314 160.48498535 C-430.96844532 159.40089178 -428.18585091 158.31014174 -425.40380859 157.21777344 C-422.40538386 156.04062171 -419.4067685 154.86397568 -416.40734863 153.68936157 C-405.7407068 149.5121425 -395.09176534 145.29058616 -384.44366455 141.06637573 C-379.9689091 139.29142699 -375.49354877 137.51800616 -371.01818848 135.74458313 C-367.61477554 134.39593382 -364.2114313 133.04711129 -360.80810547 131.69824219 C-349.60142942 127.25667583 -338.39451494 122.8157112 -327.1875 118.375 C-326.08888641 117.93967957 -324.99027283 117.50435913 -323.85836792 117.05584717 C-302.21412164 108.47960368 -280.56716676 99.91021099 -258.91943359 91.34277344 C-249.94781402 87.79207483 -240.97643546 84.24076735 -232.0050354 80.68951416 C-227.00336649 78.70965196 -222.00168249 76.72982788 -217 74.75 C-214.99999993 73.95833352 -212.99999993 73.16666685 -211 72.375 C-150.99999996 48.62499998 -150.99999996 48.62499998 -148.00015259 47.43756104 C-145.99964338 46.64569238 -143.99913476 45.85382227 -141.99862671 45.06195068 C-137.00642232 43.08586238 -132.01420793 41.10979934 -127.02197266 39.13378906 C-115.86760197 34.71866674 -104.71348703 30.30289939 -93.55969238 25.88632202 C-85.5748202 22.72468691 -77.58920312 19.56493672 -69.60339355 16.40567017 C-63.88504201 14.14300829 -58.16805472 11.87694081 -52.45217896 9.60803223 C-48.88870835 8.19392484 -45.32446983 6.78176045 -41.7600708 5.36999512 C-40.10374771 4.71342663 -38.44777458 4.0559745 -36.79217529 3.39758301 C-34.53422446 2.49974625 -32.27507999 1.60498083 -30.015625 0.7109375 C-29.35762909 0.44838165 -28.69963318 0.18582581 -28.021698 -0.08468628 C-18.73892854 -3.74704635 -9.14400703 -4.77982186 0 0 Z " fill="#D6DBF2" transform="translate(485,16)"/>
<path d="M0 0 C7.39808039 5.19058866 12.10177855 11.12453213 14 20 C14.9805313 26.29277679 13.65955256 31.66183167 11.4921875 37.55859375 C11.0940258 38.66250961 11.0940258 38.66250961 10.68782043 39.78872681 C7.58907152 48.28280945 4.21559204 56.66896938 0.82839966 65.05117798 C-1.17150299 70.0011042 -3.15891839 74.95604972 -5.1484375 79.91015625 C-5.75899239 81.42910744 -5.75899239 81.42910744 -6.38188171 82.97874451 C-10.438044 93.07517285 -14.44335976 103.19140677 -18.4375 113.3125 C-19.1358035 115.08122537 -19.83412719 116.84994277 -20.5324707 118.61865234 C-21.594815 121.30946035 -22.65708613 124.00029712 -23.71913147 126.69122314 C-27.57009554 136.44750062 -31.4314601 146.19965612 -35.29299927 155.95175171 C-41.70006698 172.13263104 -48.10279041 188.31522078 -54.5 204.5 C-62.85701266 225.64268017 -71.22422257 246.78131821 -79.59277344 267.91943359 C-83.16706339 276.94781854 -86.74076801 285.97643518 -90.31451416 295.0050354 C-92.29298521 300.00336652 -94.27149455 305.00168249 -96.25 310 C-97.04166685 311.99999993 -97.83333352 313.99999993 -98.625 316 C-100.20833333 320 -101.79166667 324 -103.375 328 C-103.76686493 328.98997482 -104.15872986 329.97994965 -104.56246948 330.99992371 C-105.35423714 333.00017831 -106.14600553 335.00043262 -106.93777466 337.00068665 C-108.91540215 341.99678884 -110.89301695 346.99289605 -112.87060547 351.98901367 C-116.45138932 361.03535726 -120.03223638 370.08167577 -123.6136322 379.1277771 C-124.41785217 381.15918991 -125.22202091 383.190623 -126.02613831 385.22207642 C-128.01213846 390.23925781 -129.99882856 395.25616353 -131.98706055 400.27246094 C-135.53238925 409.21996058 -139.07101164 418.16987409 -142.57922363 427.13200378 C-144.12083579 431.06960381 -145.66627804 435.00569601 -147.21185303 438.94174194 C-147.93334277 440.78259504 -148.65285633 442.62422415 -149.37017822 444.46670532 C-161.51734025 475.66511138 -161.51734025 475.66511138 -172.125 481.0859375 C-179.63866613 484.01090039 -187.57930124 484.12552871 -195.1875 481.5 C-204.84517489 476.94716847 -209.89125291 468.51578344 -214.9520874 459.49252319 C-216.77767516 456.23907678 -218.64643606 453.0104006 -220.5078125 449.77734375 C-220.88511505 449.1192421 -221.2624176 448.46114044 -221.65115356 447.78309631 C-225.26057378 441.50230141 -229.04744795 435.33754424 -232.875 429.1875 C-237.35265377 421.97933548 -241.76834249 414.74241405 -246.0859375 407.4375 C-246.51611176 406.70992996 -246.94628601 405.98235992 -247.38949585 405.23274231 C-249.50151681 401.65713832 -251.60742311 398.07806483 -253.70654297 394.49487305 C-254.47617027 393.187949 -255.2458612 391.88106241 -256.015625 390.57421875 C-256.35975433 389.98265991 -256.70388367 389.39110107 -257.05844116 388.78161621 C-259.124694 385.2818163 -261.38995455 382.11407681 -264 379 C-264.86689453 379.8878418 -265.73378906 380.77568359 -266.62695312 381.69042969 C-269.86689171 385.00314144 -273.12035626 388.30229195 -276.37792969 391.59765625 C-277.78200753 393.02176466 -279.182464 394.44945347 -280.57910156 395.88085938 C-282.59523387 397.94588505 -284.62433519 399.99739086 -286.65625 402.046875 C-287.2711731 402.68244324 -287.88609619 403.31801147 -288.51965332 403.97283936 C-289.11967163 404.57315979 -289.71968994 405.17348022 -290.33789062 405.79199219 C-290.85307251 406.31605652 -291.36825439 406.84012085 -291.89904785 407.38006592 C-293.86589933 408.89660201 -295.60032652 409.79538539 -297.83857727 410.83560181 C-302.0708169 412.88474058 -305.00276839 415.47608713 -308.24487305 418.83837891 C-308.81347046 419.41121109 -309.38206787 419.98404327 -309.96789551 420.57423401 C-311.18966249 421.80779134 -312.40677261 423.04597561 -313.61957359 424.28834915 C-315.54046415 426.25600776 -317.47347006 428.21102786 -319.40986633 430.16342163 C-322.81772016 433.60341945 -326.21464956 437.05397174 -329.60803223 440.50823975 C-335.04744613 446.04520228 -340.49530828 451.57364051 -345.95838356 457.0872612 C-347.85994879 459.01196678 -349.75179832 460.94587028 -351.64323425 462.88052368 C-352.80951198 464.0608954 -353.97618307 465.24087864 -355.14331055 466.42041016 C-355.66445938 466.958629 -356.18560822 467.49684784 -356.72254944 468.05137634 C-361.0512877 472.39469769 -364.75933674 474.2773057 -370.875 474.375 C-376.08797703 474.2508815 -378.84666117 473.15653751 -383 470 C-386.48017186 466.06191079 -387.54170435 462.60182924 -388.21484375 457.5390625 C-387.55427088 449.7322922 -383.73410139 445.01087142 -378.35717773 439.77368164 C-377.68695587 439.10112335 -377.01673401 438.42856506 -376.32620239 437.73562622 C-374.12378958 435.53160782 -371.90414305 433.34588833 -369.68359375 431.16015625 C-368.14465619 429.62801203 -366.60675278 428.09482845 -365.06983948 426.56065369 C-361.85518583 423.35665447 -358.63271248 420.16082532 -355.40356445 416.97143555 C-351.25809472 412.87700331 -347.12574174 408.76965488 -342.9982748 404.65708256 C-339.06394549 400.73751483 -335.12440555 396.82320505 -331.18359375 392.91015625 C-330.4294412 392.16091448 -329.67528866 391.41167271 -328.898283 390.63972664 C-326.7728073 388.53047431 -324.64379708 386.42486486 -322.51342773 384.32055664 C-321.88013046 383.69151932 -321.24683319 383.06248199 -320.59434509 382.41438293 C-316.2302744 378.1151372 -316.2302744 378.1151372 -314 377 C-313.32058998 373.97088419 -312.76365802 370.99473205 -312.2734375 367.93359375 C-312.12089508 367.02497086 -311.96835266 366.11634796 -311.81118774 365.18019104 C-311.32413018 362.26727531 -310.84945017 359.35249309 -310.375 356.4375 C-310.04768597 354.46666202 -309.71957145 352.4959568 -309.390625 350.52539062 C-308.5844407 345.68508754 -307.78935403 340.84307502 -307 336 C-307.80908813 336.81797058 -308.61817627 337.63594116 -309.45178223 338.47869873 C-317.09111665 346.19924397 -324.74108543 353.90911109 -332.40149689 361.60874557 C-336.33912095 365.5672127 -340.27295034 369.52930068 -344.19824219 373.5 C-347.98899847 377.33432969 -351.78954275 381.15870453 -355.5969696 384.97647858 C-357.04528586 386.43216546 -358.49008657 387.89135913 -359.93122864 389.35414886 C-361.95592348 391.40802898 -363.99294758 393.44889706 -366.03320312 395.48730469 C-366.62158966 396.09007233 -367.2099762 396.69283997 -367.81619263 397.31387329 C-372.32097668 401.77491925 -377.21376232 405.19667968 -383.50390625 406.53125 C-389.13945533 406.44570087 -392.44534629 405.39366355 -397 402 C-400.82893143 397.06269369 -402.07984318 393.44992838 -402.328125 387.23046875 C-401.28425408 380.13463189 -396.06253634 375.62932736 -391.22729492 370.82324219 C-390.43670181 370.02578583 -389.6461087 369.22832947 -388.83155823 368.40670776 C-386.22215881 365.77904157 -383.60185784 363.16257647 -380.98046875 360.546875 C-379.16030267 358.72214771 -377.34050912 356.89704876 -375.52107239 355.07159424 C-371.70876307 351.25035446 -367.89095171 347.43473141 -364.0690918 343.62304688 C-359.65672704 339.22217067 -355.25730882 334.80865197 -350.86410064 330.38865924 C-346.62878234 326.12849282 -342.38236008 321.87958659 -338.13137245 317.63504791 C-336.3273705 315.8311994 -334.52647383 314.02423982 -332.72875023 312.21413422 C-330.2155985 309.68611646 -327.69004803 307.17116872 -325.16088867 304.65917969 C-324.4204129 303.90903595 -323.67993713 303.15889221 -322.91702271 302.38601685 C-318.07629562 297.6138965 -314.50911277 295.38990142 -307.625 294.625 C-302.16067082 295.19027543 -298.14549227 297.29622673 -293.875 300.6875 C-292.63383134 303.96773145 -293.56479567 306.24312723 -294.4375 309.5703125 C-296.5603777 318.7399648 -293.89730554 326.11220421 -289.08203125 333.9375 C-287.99972011 335.62984105 -286.90974324 337.31730189 -285.8125 339 C-285.25369141 339.87011719 -284.69488281 340.74023438 -284.11914062 341.63671875 C-282.75273971 343.76223129 -281.37964691 345.88307131 -280 348 C-241.05774743 342.78948687 -204.68906462 329.61831056 -173 306 C-172.41541016 305.56945312 -171.83082031 305.13890625 -171.22851562 304.6953125 C-164.61284379 299.80579021 -158.31250957 294.65193808 -152.2578125 289.07421875 C-150.22836537 287.20979587 -148.15965844 285.41225446 -146.0625 283.625 C-138.07326576 276.63442004 -130.84145766 269.09868082 -124.234375 260.79296875 C-121.94526129 257.93157661 -119.57149975 255.15759843 -117.1875 252.375 C-106.4698349 239.50052923 -97.43122181 225.44918114 -89 211 C-88.55301758 210.23913086 -88.10603516 209.47826172 -87.64550781 208.69433594 C-60.36968226 161.89930909 -45.34442492 108.70038752 -40 55 C-39.90936279 54.1332666 -39.81872559 53.2665332 -39.7253418 52.37353516 C-38.78947837 42.52061295 -38.65803106 32.63879275 -38.4375 22.75 C-38.39420502 20.92577351 -38.35058767 19.10155465 -38.30664062 17.27734375 C-38.20071309 12.85164153 -38.09913874 8.42585929 -38 4 C-35.58459694 3.01761592 -33.16778178 2.03899782 -30.75 1.0625 C-30.06808594 0.78470703 -29.38617188 0.50691406 -28.68359375 0.22070312 C-19.16221177 -3.61558185 -9.45079515 -4.94018837 0 0 Z " fill="#C5CEEA" transform="translate(485,16)"/>
<path d="M0 0 C1.17431858 3.52295574 0.85319664 3.96120378 -0.66796875 7.18359375 C-1.06016602 8.01842285 -1.45236328 8.85325195 -1.85644531 9.71337891 C-2.29569336 10.61233887 -2.73494141 11.51129883 -3.1875 12.4375 C-3.64092773 13.37255371 -4.09435547 14.30760742 -4.56152344 15.27099609 C-21.39892083 49.36414691 -46.42688237 82.05932025 -77 105 C-77.55187988 105.42297363 -78.10375977 105.84594727 -78.67236328 106.28173828 C-87.73376052 113.21971615 -97.06593095 119.38857988 -107 125 C-107.64098633 125.36834961 -108.28197266 125.73669922 -108.94238281 126.11621094 C-137.00489833 142.14200608 -168.48811249 151.44366072 -200.875 151.4375 C-201.58733795 151.43889984 -202.2996759 151.44029968 -203.03359985 151.44174194 C-216.46112796 151.42022677 -229.05712197 149.70842616 -242 146 C-242.69561035 145.80245117 -243.3912207 145.60490234 -244.10791016 145.40136719 C-262.45045329 139.97590998 -278.88935955 129.76676993 -293 117 C-290.74461808 114.74461808 -289.06896911 114.09593168 -286.10839844 112.94384766 C-285.08302475 112.54179611 -284.05765106 112.13974457 -283.00120544 111.72550964 C-281.32224937 111.07634331 -281.32224937 111.07634331 -279.609375 110.4140625 C-278.4511171 109.96134476 -277.29285919 109.50862701 -276.09950256 109.04219055 C-273.61265769 108.07081879 -271.12517798 107.10131992 -268.63638306 106.13497925 C-264.73033715 104.61822815 -260.82713843 103.09425226 -256.92456055 101.56860352 C-255.62828199 101.06190146 -254.33200209 100.55520284 -253.03572083 100.04850769 C-252.39898752 99.7996047 -251.76225422 99.55070171 -251.10622597 99.29425621 C-249.18756803 98.54452174 -247.2686497 97.7954575 -245.34965515 97.04658508 C-236.82072461 93.7170365 -228.30608173 90.35618275 -219.8125 86.9375 C-206.43363842 81.56119804 -193.03062634 76.24665308 -179.625 70.9375 C-178.48444153 70.48577423 -177.34388306 70.03404846 -176.16876221 69.56863403 C-169.22936762 66.82042366 -162.28965397 64.07301985 -155.34979248 61.32598877 C-152.12784537 60.05060658 -148.90595188 58.77508907 -145.68408203 57.49951172 C-134.74680055 53.16932225 -123.80922398 48.83987888 -112.87139893 44.51106262 C-104.91758311 41.36320824 -96.96389899 38.21502126 -89.01029968 35.06661987 C-84.03581411 33.09749013 -79.06129164 31.12845374 -74.08666992 29.15966797 C-64.71519304 25.45063916 -55.34413645 21.74055761 -45.97436523 18.02722168 C-41.5488109 16.27339562 -37.12304647 14.52010007 -32.69726562 12.7668457 C-30.58778543 11.93101089 -28.47840817 11.09491622 -26.36914062 10.25854492 C-23.44427089 9.09878805 -20.51904737 7.93992774 -17.59375 6.78125 C-16.73761108 6.44150146 -15.88147217 6.10175293 -14.99938965 5.75170898 C-10.01882367 3.7801573 -5.02111205 1.86597329 0 0 Z " fill="#E4E7F8" transform="translate(336,64)"/>
<path d="M0 0 C2.12352437 1.41568291 3.46969212 2.94305496 4.734375 5.15625 C3.5280235 7.89795794 2.16235125 9.88961378 0.296875 12.28125 C-3.16437673 17.05189022 -4.86373865 22.68964834 -5.54048157 28.52711487 C-7.22211163 39.11540425 -15.63511344 45.60186876 -22.93359375 52.74609375 C-24.41375821 54.22148225 -25.89243878 55.69836078 -27.3697052 57.176651 C-30.46026247 60.26097341 -33.56371845 63.33146142 -36.67797852 66.3918457 C-40.65837323 70.30422385 -44.6118663 74.24247944 -48.55686474 78.19051266 C-51.60557934 81.23813682 -54.66462903 84.27520456 -57.72722816 87.30887032 C-59.18833717 88.75730292 -60.64708211 90.2081245 -62.1033535 91.66142082 C-64.14396219 93.69330284 -66.19724151 95.71145484 -68.25463867 97.72631836 C-68.84766281 98.32115524 -69.44068695 98.91599213 -70.05168152 99.52885437 C-74.85660623 104.19007247 -80.81844063 108.76265887 -87.828125 108.65625 C-92.63433057 108.40765316 -95.40965257 107.02932749 -99.265625 104.15625 C-103.09455643 99.21894369 -104.34546818 95.60617838 -104.59375 89.38671875 C-103.54987908 82.29088189 -98.32816134 77.78557736 -93.49291992 72.97949219 C-92.70232681 72.18203583 -91.9117337 71.38457947 -91.09718323 70.56295776 C-88.48778381 67.93529157 -85.86748284 65.31882647 -83.24609375 62.703125 C-81.42592767 60.87839771 -79.60613412 59.05329876 -77.78669739 57.22784424 C-73.97438807 53.40660446 -70.15657671 49.59098141 -66.3347168 45.77929688 C-61.92235204 41.37842067 -57.52293382 36.96490197 -53.12972564 32.54490924 C-48.89440734 28.28474282 -44.64798508 24.03583659 -40.39699745 19.79129791 C-38.5929955 17.9874494 -36.79209883 16.18048982 -34.99437523 14.37038422 C-32.4812235 11.84236646 -29.95567303 9.32741872 -27.42651367 6.81542969 C-26.6860379 6.06528595 -25.94556213 5.31514221 -25.18264771 4.54226685 C-17.57669451 -2.95588857 -9.77432842 -5.30389914 0 0 Z " fill="#4E8BF2" transform="translate(187.265625,313.84375)"/>
<path d="M0 0 C4.47870656 2.15937638 7.18198188 4.92952939 10 9 C10.88951276 11.66853827 11.22066937 13.48541469 11.3125 16.25 C11.36857422 17.34054687 11.36857422 17.34054687 11.42578125 18.453125 C10.27316819 25.34765448 5.17704269 30.26212709 0.41479492 34.98925781 C-0.23778793 35.64870392 -0.89037079 36.30815002 -1.56272888 36.98757935 C-3.7074096 39.15046014 -5.86288683 41.30217796 -8.01953125 43.453125 C-9.52198755 44.9601456 -11.02407233 46.46753669 -12.52580261 47.97528076 C-15.66884941 51.12724481 -18.81748862 54.27348947 -21.9699707 57.41601562 C-26.00347684 61.43802101 -30.02088996 65.47568178 -34.03403187 69.51799393 C-37.1299913 72.63232019 -40.23523079 75.73726155 -43.34323692 78.83956146 C-44.82822883 80.32440029 -46.31013106 81.81233595 -47.7888279 83.30344391 C-49.85861672 85.38815285 -51.9408093 87.45964944 -54.02661133 89.52832031 C-54.63101044 90.14238739 -55.23540955 90.75645447 -55.85812378 91.38912964 C-60.19802752 95.65493811 -64.38395241 98.70795504 -70.66015625 99.21484375 C-76.0619067 98.59122703 -79.83504356 97.76829392 -84 94 C-87.65688231 89.18831274 -88.45246661 85.61253769 -88.53125 79.625 C-87.13082318 72.70524393 -82.32280527 67.88916576 -77.47485352 63.10253906 C-76.82881165 62.45284653 -76.18276978 61.80315399 -75.51715088 61.1337738 C-73.39504646 59.00361078 -71.26234474 56.88443167 -69.12890625 54.765625 C-67.64393348 53.2811713 -66.15947983 51.79619813 -64.67552185 50.31072998 C-61.57084931 47.20614695 -58.46109286 44.10677823 -55.34741211 41.01123047 C-51.35982082 37.04635498 -47.38342854 33.07047036 -43.41055393 29.09085464 C-40.34916273 26.02612024 -37.28280175 22.96639878 -34.21482658 19.90825653 C-32.74670461 18.44397851 -31.27992241 16.97835591 -29.81451607 15.51136017 C-27.76607989 13.46255257 -25.71125815 11.42037297 -23.65454102 9.37988281 C-23.05230209 8.77516647 -22.45006317 8.17045013 -21.82957458 7.54740906 C-14.95406209 0.75813621 -9.75590292 -1.19135857 0 0 Z " fill="#4D8CF1" transform="translate(103,309)"/>
<path d="M0 0 C1.39318135 2.78636269 0.66674509 4.40047729 0.0625 7.4375 C-1.88097764 17.26401607 -1.88097764 17.26401607 -0.1953125 26.9140625 C3.0841535 31.5053149 7.83740852 32.64402344 13 34 C7.34708614 40.8848405 1.05908172 47.12347439 -5.22265625 53.42578125 C-5.80667143 54.01262381 -6.39068661 54.59946636 -6.99239922 55.20409203 C-10.07532804 58.30192487 -13.16105327 61.39693843 -16.24926758 64.48950195 C-19.43247724 67.67822296 -22.60628272 70.87613735 -25.77803898 74.07624531 C-28.22741813 76.5442455 -30.68347699 79.00551474 -33.14141655 81.4649868 C-34.31485744 82.64144946 -35.4858026 83.82040705 -36.65416145 85.00191689 C-38.28595603 86.65078105 -39.92696934 88.28990403 -41.57055664 89.92700195 C-42.96571251 91.32762627 -42.96571251 91.32762627 -44.38905334 92.75654602 C-49.13738818 96.83654921 -53.41883608 97.45728962 -59.5 97.3125 C-64.74059413 96.65742573 -67.87665946 94.27114851 -71.375 90.3125 C-74.13400568 84.68837304 -74.6893021 80.32667592 -72.90174866 74.29295349 C-71.02659509 69.44878285 -68.03406278 66.3550129 -64.35717773 62.77368164 C-63.68695587 62.10112335 -63.01673401 61.42856506 -62.32620239 60.73562622 C-60.12378958 58.53160782 -57.90414305 56.34588833 -55.68359375 54.16015625 C-54.14465619 52.62801203 -52.60675278 51.09482845 -51.06983948 49.56065369 C-47.85518583 46.35665447 -44.63271248 43.16082532 -41.40356445 39.97143555 C-37.25809472 35.87700331 -33.12574174 31.76965488 -28.9982748 27.65708256 C-25.06394549 23.73751483 -21.12440555 19.82320505 -17.18359375 15.91015625 C-16.4294412 15.16091448 -15.67528866 14.41167271 -14.898283 13.63972664 C-12.7728073 11.53047431 -10.64379708 9.42486486 -8.51342773 7.32055664 C-7.88013046 6.69151932 -7.24683319 6.06248199 -6.59434509 5.41438293 C-2.2302744 1.1151372 -2.2302744 1.1151372 0 0 Z " fill="#4E8BF2" transform="translate(171,393)"/>
<path d="M0 0 C4.47870656 2.15937638 7.18198188 4.92952939 10 9 C11.77492048 14.32476143 11.72514497 19.13534151 9.6875 24.375 C8.80966014 25.59646796 7.9104606 26.80264947 7 28 C6.46375 28.95003906 5.9275 29.90007812 5.375 30.87890625 C2.62304882 34.7267237 0.44137247 37.21738405 -4 39 C-17.59615146 41.11882931 -33.76895228 40.51700603 -47 37 C-47.66 36.34 -48.32 35.68 -49 35 C-44.5413631 30.4905626 -40.07483233 25.98905635 -35.6027832 21.49291992 C-34.08305858 19.96315128 -32.56513558 18.43159059 -31.04907227 16.89819336 C-28.8668833 14.69168632 -26.67825029 12.49175092 -24.48828125 10.29296875 C-23.81412674 9.60849167 -23.13997223 8.92401459 -22.44538879 8.21879578 C-15.30505986 1.07678224 -10.25528993 -1.25234205 0 0 Z " fill="#6598FE" transform="translate(103,309)"/>
<path d="M0 0 C2.12352437 1.41568291 3.46969212 2.94305496 4.734375 5.15625 C3.5280235 7.89795794 2.16235125 9.88961378 0.296875 12.28125 C-2.8221399 16.58018549 -3.93923651 21.07722726 -5.265625 26.15625 C-5.79193348 28.09959286 -6.32057377 30.04230573 -6.8515625 31.984375 C-7.25060791 33.44472168 -7.25060791 33.44472168 -7.65771484 34.93457031 C-7.8583252 35.66772461 -8.05893555 36.40087891 -8.265625 37.15625 C-41.78047649 37.6512995 -41.78047649 37.6512995 -52.265625 34.15625 C-50.94849781 31.25022394 -49.52430839 29.15668344 -47.28808594 26.88818359 C-46.68695984 26.27429779 -46.08583374 25.66041199 -45.4664917 25.02792358 C-44.49307831 24.05117172 -44.49307831 24.05117172 -43.5 23.0546875 C-42.49347382 22.03817612 -42.49347382 22.03817612 -41.46661377 21.00112915 C-40.04695928 19.57136105 -38.62458808 18.14428604 -37.19970703 16.71972656 C-35.02697035 14.54261817 -32.87072215 12.3500372 -30.71484375 10.15625 C-29.33171212 8.76724967 -27.94762826 7.37919677 -26.5625 5.9921875 C-25.92165466 5.33697113 -25.28080933 4.68175476 -24.62054443 4.00668335 C-17.26214853 -3.27793782 -9.3271048 -5.06121966 0 0 Z " fill="#6598FE" transform="translate(187.265625,313.84375)"/>
<path d="M0 0 C2.39171533 0.45204982 4.72348964 1.02929494 7.07763672 1.64794922 C17.76973939 4.15509035 28.18992268 4.7405654 39.14013672 4.96044922 C38.26368571 10.70132426 33.5243693 14.0480904 29.57763672 17.96044922 C28.39717773 19.17087891 28.39717773 19.17087891 27.19287109 20.40576172 C21.93332591 25.66097092 17.10650973 29.90674137 9.63623047 31.49169922 C4.00068139 31.40615009 0.69479043 30.35411277 -3.85986328 26.96044922 C-8.09716617 21.49655865 -9.59289305 16.85878298 -8.85986328 9.96044922 C-4.98812337 -0.10607456 -4.98812337 -0.10607456 0 0 Z " fill="#357DE6" transform="translate(91.85986328125,391.03955078125)"/>
<path d="M0 0 C2.43359375 0.171875 2.43359375 0.171875 5.4375 0.75 C6.52804688 0.94980469 7.61859375 1.14960938 8.7421875 1.35546875 C10.68762543 1.74035755 12.63118754 2.13525447 14.5703125 2.55078125 C23.63175045 4.41135864 32.78096463 4.63697063 42 5 C39.60387524 10.55161255 35.02107232 14.34760376 30.8125 18.5625 C29.97396484 19.42552734 29.13542969 20.28855469 28.27148438 21.17773438 C18.8879371 30.60523269 18.8879371 30.60523269 11.33984375 31.21484375 C5.9380933 30.59122703 2.16495644 29.76829392 -2 26 C-5.66336364 21.17978469 -6.63798238 17.4814015 -6.3984375 11.4375 C-5.63038833 6.73884625 -3.35952098 3.35952098 0 0 Z " fill="#357DE5" transform="translate(21,377)"/>
<path d="M0 0 C1.52940007 0.38561145 3.05397542 0.79067454 4.57421875 1.2109375 C15.70549998 3.9527733 26.84797613 4.82840865 38.26171875 5.5859375 C33.79123794 10.92392945 29.10350194 15.95752101 24.19921875 20.8984375 C23.50505859 21.61322266 22.81089844 22.32800781 22.09570312 23.06445312 C21.41701172 23.74830078 20.73832031 24.43214844 20.0390625 25.13671875 C19.43312256 25.75200439 18.82718262 26.36729004 18.20288086 27.0012207 C13.78409196 30.60861081 9.27258293 31.02964855 3.76171875 30.8984375 C-1.47887538 30.24336323 -4.61494071 27.85708601 -8.11328125 23.8984375 C-10.84965916 18.32043639 -11.56772884 13.22454109 -9.55078125 7.2734375 C-7.59580947 2.28669131 -5.66593181 -0.62757447 0 0 Z " fill="#357DE5" transform="translate(107.73828125,459.4140625)"/>
<path d="M0 0 C1.39318135 2.78636269 0.66674509 4.40047729 0.0625 7.4375 C-1.88097764 17.26401607 -1.88097764 17.26401607 -0.1953125 26.9140625 C3.05358605 31.46252048 7.84204188 32.71893851 13 34 C11 37 11 37 8.9453125 37.671875 C-5.21607756 39.24953649 -19.08302537 37.64485491 -33 35 C-31.38884843 31.12402964 -28.77438422 28.3279163 -25.9375 25.3125 C-25.42525879 24.76303711 -24.91301758 24.21357422 -24.38525391 23.64746094 C-19.63622737 18.59577985 -14.76653212 13.66331144 -9.875 8.75 C-9.12855225 7.99887939 -8.38210449 7.24775879 -7.61303711 6.47387695 C-6.91315674 5.77609131 -6.21327637 5.07830566 -5.4921875 4.359375 C-4.86683105 3.73514648 -4.24147461 3.11091797 -3.59716797 2.46777344 C-2 1 -2 1 0 0 Z " fill="#6598FE" transform="translate(171,393)"/>
</svg>
