<?xml version="1.0" encoding="UTF-8"?>
<svg version="1.1" xmlns="http://www.w3.org/2000/svg" width="512" height="512">
<path d="M0 0 C3.5677811 2.35149209 5.84221079 4.99692157 7.75 8.8125 C8.45394714 16.58704253 7.17122622 23.24307927 4.8046875 30.60546875 C4.32918961 32.15041016 4.32918961 32.15041016 3.84408569 33.7265625 C2.78521034 37.15560983 1.70491102 40.57752499 0.625 44 C-0.14126219 46.46930775 -0.90586671 48.93913041 -1.66894531 51.40942383 C-3.10244333 56.04689266 -4.54123934 60.68265809 -5.98634338 65.31652355 C-8.87022771 74.56558995 -11.71248753 83.82702467 -14.5390625 93.09375 C-14.76111485 93.82163034 -14.98316719 94.54951069 -15.21194839 95.29944801 C-16.1185437 98.27153621 -17.02495996 101.24367888 -17.93103981 104.21592426 C-19.5551949 109.54339986 -21.18225839 114.8699806 -22.81103516 120.19604492 C-23.16079564 121.33978404 -23.16079564 121.33978404 -23.51762199 122.50662899 C-23.8677167 123.65145669 -23.8677167 123.65145669 -24.22488403 124.81941223 C-30.08383973 143.97853431 -35.92045848 163.14441097 -41.75 182.3125 C-49.12811555 206.57202613 -56.52717385 230.82507146 -63.94134903 255.07360077 C-70.29704216 275.8604031 -76.63985722 296.65104931 -82.96339321 317.44765759 C-84.48364255 322.44680569 -86.00583698 327.44535854 -87.52905273 332.44360352 C-88.38660716 335.25795967 -89.24409444 338.07233628 -90.1015625 340.88671875 C-90.31262949 341.57939157 -90.52369648 342.2720644 -90.74115944 342.98572731 C-93.38199141 351.65386638 -96.0112042 360.32540735 -98.62605953 369.00141907 C-100.38575914 374.83942637 -102.15186207 380.67547081 -103.92252445 386.51016235 C-105.16479132 390.60533285 -106.3986688 394.70290082 -107.62608719 398.80254459 C-108.55652135 401.9007415 -109.49996042 404.99497842 -110.44140625 408.08984375 C-110.76962372 409.1957637 -111.09784119 410.30168365 -111.43600464 411.44111633 C-113.59566296 418.48169134 -115.65828015 424.77241364 -122.25 428.8125 C-127.06623303 430.41791101 -131.30561744 430.61591776 -135.97265625 428.6875 C-140.18608772 426.27695518 -143.99683542 423.47433384 -147.875 420.5625 C-148.70257813 419.94697266 -149.53015625 419.33144531 -150.3828125 418.69726562 C-153.00937734 416.74118684 -155.63041671 414.77791648 -158.25 412.8125 C-159.08499023 412.18666016 -159.91998047 411.56082031 -160.78027344 410.91601562 C-164.1094564 408.42010642 -167.4377236 405.92298918 -170.76391602 403.4230957 C-176.42592227 399.17012879 -182.10937814 394.94765765 -187.8125 390.75 C-188.59383301 390.17491699 -189.37516602 389.59983398 -190.18017578 389.00732422 C-194.09251264 386.12986878 -198.00807882 383.2568634 -201.92578125 380.38671875 C-211.2842178 373.52172331 -220.55058988 366.54967019 -229.76513672 359.49267578 C-235.58893313 355.04452822 -241.49140238 350.74917529 -247.48828125 346.5390625 C-250.6053566 344.31444953 -253.63791379 341.99000969 -256.66796875 339.6484375 C-257.61994141 338.91367187 -258.57191406 338.17890625 -259.55273438 337.421875 C-261.45090012 335.95166403 -263.34428317 334.47525382 -265.23242188 332.9921875 C-266.09802734 332.321875 -266.96363281 331.6515625 -267.85546875 330.9609375 C-268.63043701 330.35427246 -269.40540527 329.74760742 -270.20385742 329.12255859 C-272.2661532 327.54289617 -272.2661532 327.54289617 -275.25 327.8125 C-275.51761705 328.35142128 -275.78523411 328.89034256 -276.06096077 329.44559479 C-282.58808486 342.58837041 -289.12418065 355.72665663 -295.67015266 368.86005402 C-298.83558576 375.2115021 -301.99802091 381.56440918 -305.15332031 387.92089844 C-308.19989685 394.05833928 -311.25492756 400.19151153 -314.31509018 406.32218933 C-315.47964608 408.65867641 -316.64139043 410.99656707 -317.80023575 413.33589172 C-319.4272125 416.61899449 -321.06422837 419.89690757 -322.70361328 423.17382812 C-323.17763077 424.1362442 -323.65164825 425.09866028 -324.14002991 426.09024048 C-327.47417487 432.71816625 -330.92233044 439.49759943 -337.125 443.8125 C-342.32631335 445.47692027 -346.35894409 445.50346274 -351.5 443.625 C-355.0677811 441.27350791 -357.34221079 438.62807843 -359.25 434.8125 C-359.3445773 432.58268936 -359.37189797 430.34994843 -359.37025452 428.11813354 C-359.37153615 427.07426442 -359.37153615 427.07426442 -359.37284368 426.00930703 C-359.37449713 423.66617238 -359.36897932 421.32310857 -359.36352539 418.97998047 C-359.36324346 417.30482993 -359.36340136 415.62967927 -359.3639679 413.95452881 C-359.36425566 409.3969306 -359.35836238 404.83935853 -359.35139394 400.28176641 C-359.34515684 395.5224912 -359.34455632 390.76321544 -359.34336853 386.00393677 C-359.34025627 376.9870923 -359.33204429 367.9702599 -359.32201904 358.95342076 C-359.31085465 348.68996791 -359.30534663 338.42651449 -359.30032361 328.16305709 C-359.28986159 307.04619798 -359.27226417 285.92934975 -359.25 264.8125 C-360.02868313 264.66300337 -360.80736626 264.51350674 -361.60964584 264.3594799 C-364.15379554 263.83242987 -366.39349919 263.10032847 -368.81347656 262.16455078 C-370.1401107 261.65493553 -370.1401107 261.65493553 -371.49354553 261.13502502 C-372.44958176 260.76304489 -373.40561798 260.39106476 -374.390625 260.0078125 C-375.40462875 259.61693954 -376.41863251 259.22606659 -377.46336365 258.823349 C-380.81043363 257.53197475 -384.15522722 256.23481136 -387.5 254.9375 C-389.84077989 254.03280653 -392.18168329 253.12843257 -394.52270508 252.22436523 C-400.57953353 249.88409499 -406.63440197 247.53879632 -412.68878174 245.19219971 C-417.20025784 243.44434776 -421.71295375 241.69965991 -426.22567749 239.95503235 C-436.45403333 236.00072392 -446.67653476 232.0317575 -456.89437866 228.05036926 C-462.26053342 225.96303856 -467.63542697 223.90152967 -473.02302551 221.87019348 C-476.13788901 220.69414765 -479.24783628 219.50546243 -482.35708618 218.31466675 C-483.76170457 217.78067612 -485.16869472 217.2528739 -486.57821655 216.73196411 C-500.33326276 211.64597449 -500.33326276 211.64597449 -504.25 203.8125 C-504.77940021 198.50114048 -504.91363629 194.13977259 -502.5 189.3125 C-499.34671364 185.80884849 -496.35823659 183.66567826 -491.9519043 182.01342773 C-491.10095184 181.69062332 -490.24999939 181.36781891 -489.3732605 181.03523254 C-488.44957672 180.69231674 -487.52589294 180.34940094 -486.57421875 179.99609375 C-485.59881134 179.62792038 -484.62340393 179.25974701 -483.61843872 178.88041687 C-481.50415613 178.08321592 -479.38875232 177.28898367 -477.27236938 176.49737549 C-473.88668579 175.23099344 -470.50389591 173.95715206 -467.12182617 172.68115234 C-463.61616436 171.35858214 -460.11034701 170.03644495 -456.60365295 168.71661377 C-446.35466006 164.85866815 -436.1248318 160.95199697 -425.90127563 157.02722168 C-421.06639934 155.17125622 -416.23043805 153.31812211 -411.39453125 151.46484375 C-410.41471786 151.08929352 -409.43490448 150.71374329 -408.42539978 150.32681274 C-396.37089854 145.70749677 -384.31048373 141.10366863 -372.25 136.5 C-371.1018985 136.06173889 -369.953797 135.62347778 -368.77090454 135.17193604 C-362.93195925 132.94309545 -357.09294922 130.71442452 -351.25390625 128.48583984 C-340.89537432 124.53220858 -330.5374286 120.57704201 -320.17944336 116.62197876 C-314.4529867 114.43542177 -308.72649138 112.24896605 -303 110.0625 C-300.70833315 109.18750048 -298.41666648 108.31250048 -296.125 107.4375 C-117.37500005 39.18750002 -117.37500005 39.18750002 -113.93829346 37.87530518 C-111.64397996 36.99929309 -109.34966844 36.12327583 -107.05535889 35.24725342 C-101.36670479 33.07519619 -95.67801768 30.90322551 -89.98925781 28.73144531 C-79.19332758 24.60980848 -68.39776049 20.4872262 -57.60327148 16.36181641 C-53.09807769 14.64004094 -48.59272724 12.91867558 -44.08734131 11.19740295 C-41.00234852 10.01875114 -37.91747709 8.8397832 -34.83276367 7.66040039 C-31.43560074 6.3615742 -28.03814535 5.0635159 -24.640625 3.765625 C-23.62780457 3.37816101 -22.61498413 2.99069702 -21.57147217 2.5914917 C-20.64586487 2.23806702 -19.72025757 1.88464233 -18.76660156 1.52050781 C-17.96208557 1.21300598 -17.15756958 0.90550415 -16.32867432 0.58868408 C-10.59517525 -1.55222403 -5.76497881 -2.10643456 0 0 Z " fill="#D8E5FB" transform="translate(504.25,34.1875)"/>
<path d="M0 0 C1.19400296 3.58200888 0.72057712 4.66664528 -0.38916016 8.21240234 C-0.72272522 9.29362869 -1.05629028 10.37485504 -1.39996338 11.48884583 C-1.96381744 13.2694062 -1.96381744 13.2694062 -2.5390625 15.0859375 C-3.13465665 17.00485337 -3.73024778 18.92377018 -4.32572937 20.84272099 C-4.9703017 22.91401448 -5.6191575 24.9839226 -6.26922607 27.05349731 C-7.64506401 31.43448114 -9.00861469 35.8192255 -10.36962891 40.20483398 C-10.83821812 41.71446482 -11.3068156 43.2240931 -11.77542114 44.73371887 C-12.00993107 45.48926371 -12.24444099 46.24480854 -12.48605728 47.02324867 C-13.2099726 49.35407886 -13.93502987 51.68455116 -14.66036987 54.01493835 C-19.41640228 69.30081592 -24.07945616 84.61444192 -28.72856903 99.9331131 C-30.47864174 105.69796979 -32.23162898 111.46194149 -33.98431015 117.22600555 C-34.42710788 118.68225784 -34.86986961 120.13852106 -35.31259537 121.59479523 C-40.29433672 137.98085164 -45.30018194 154.35952072 -50.30820465 170.73756027 C-57.50520086 194.27453571 -64.68824542 217.81568018 -71.85015106 241.36335754 C-77.45184081 259.78118889 -83.05713626 278.19789961 -88.6796875 296.609375 C-89.03425081 297.77047728 -89.03425081 297.77047728 -89.39597702 298.95503616 C-91.97829952 307.41087597 -94.56299553 315.86598357 -97.15185547 324.31982422 C-98.05448138 327.2678671 -98.95697097 330.21595169 -99.859375 333.1640625 C-100.07898518 333.88141949 -100.29859535 334.59877647 -100.52486038 335.33787155 C-103.19912338 344.07582494 -105.85522021 352.81891271 -108.48434448 361.57055664 C-109.87350315 366.19403142 -111.26920354 370.8155192 -112.66534424 375.43688965 C-113.29655459 377.53385851 -113.9242203 379.63189818 -114.54803467 381.7310791 C-115.39042585 384.56563588 -116.24463126 387.39637389 -117.1015625 390.2265625 C-117.33909241 391.03854095 -117.57662231 391.85051941 -117.8213501 392.68710327 C-119.74269208 398.96441283 -122.17534636 404.43005099 -128 408 C-132.81623303 409.60541101 -137.05561744 409.80341776 -141.72265625 407.875 C-145.93608772 405.46445518 -149.74683542 402.66183384 -153.625 399.75 C-154.45257813 399.13447266 -155.28015625 398.51894531 -156.1328125 397.88476562 C-158.75937734 395.92868684 -161.38041671 393.96541648 -164 392 C-164.83499023 391.37416016 -165.66998047 390.74832031 -166.53027344 390.10351562 C-169.8594564 387.60760642 -173.1877236 385.11048918 -176.51391602 382.6105957 C-182.17592227 378.35762879 -187.85937814 374.13515765 -193.5625 369.9375 C-194.73449951 369.07487549 -194.73449951 369.07487549 -195.93017578 368.19482422 C-199.84251264 365.31736878 -203.75807882 362.4443634 -207.67578125 359.57421875 C-217.0342178 352.70922331 -226.30058988 345.73717019 -235.51513672 338.68017578 C-240.28723634 335.03530192 -245.08708779 331.45257661 -250 328 C-257.17194033 322.95019177 -264.11904249 317.61581981 -271.0703125 312.26757812 C-271.93914062 311.60048828 -272.80796875 310.93339844 -273.703125 310.24609375 C-274.48333008 309.64466553 -275.26353516 309.0432373 -276.06738281 308.42358398 C-277.94223936 306.95788332 -277.94223936 306.95788332 -280 306 C-278.15965928 292.51069409 -269.00627001 284.59675146 -259.65869141 275.62548828 C-257.18490574 273.20122202 -254.96509472 270.59779271 -252.734375 267.953125 C-249.9800462 264.85140337 -246.99745599 261.97734241 -244.04589844 259.06542969 C-241.41910667 256.46030218 -238.89976978 253.81511455 -236.5 251 C-233.65877199 247.66702099 -230.61578377 244.57391199 -227.5 241.5 C-224.40508498 238.44662049 -221.38065723 235.37676315 -218.5625 232.0625 C-215.06289503 227.95573465 -211.24017991 224.21275194 -207.40478516 220.42431641 C-204.04955443 217.09433671 -200.90282125 213.66077511 -197.83984375 210.05859375 C-195.04233133 206.92846838 -192.03375494 204.01314342 -189.04663086 201.06616211 C-186.41959998 198.4607863 -183.89999432 195.81537795 -181.5 193 C-178.2169922 189.14877931 -174.64595488 185.6171114 -171.046875 182.06640625 C-168.41976442 179.46094768 -165.90006916 176.81546575 -163.5 174 C-160.2169922 170.14877931 -156.64595488 166.6171114 -153.046875 163.06640625 C-150.41976442 160.46094768 -147.90006916 157.81546575 -145.5 155 C-142.65877199 151.66702099 -139.61578377 148.57391199 -136.5 145.5 C-133.40508498 142.44662049 -130.38065723 139.37676315 -127.5625 136.0625 C-124.06289503 131.95573465 -120.24017991 128.21275194 -116.40478516 124.42431641 C-113.04955443 121.09433671 -109.90282125 117.66077511 -106.83984375 114.05859375 C-104.04233133 110.92846838 -101.03375494 108.01314342 -98.04663086 105.06616211 C-95.41959998 102.4607863 -92.89999432 99.81537795 -90.5 97 C-87.2169922 93.14877931 -83.64595488 89.6171114 -80.046875 86.06640625 C-77.41976442 83.46094768 -74.90006916 80.81546575 -72.5 78 C-69.2169922 74.14877931 -65.64595488 70.6171114 -62.046875 67.06640625 C-59.41976442 64.46094768 -56.90006916 61.81546575 -54.5 59 C-51.65877199 55.66702099 -48.61578377 52.57391199 -45.5 49.5 C-42.40508498 46.44662049 -39.38065723 43.37676315 -36.5625 40.0625 C-33.06289503 35.95573465 -29.24017991 32.21275194 -25.40478516 28.42431641 C-22.05400949 25.09875824 -18.90820093 21.67329024 -15.85546875 18.0703125 C-12.5721853 14.40685939 -8.99155573 11.02816342 -5.453125 7.61328125 C-3.17948614 5.19120419 -1.57353981 2.91104864 0 0 Z " fill="#61A7C5" transform="translate(510,55)"/>
<path d="M0 0 C-8.48670799 6.46660064 -17.03188261 12.7877867 -25.85766602 18.78466797 C-30.94692942 22.25156282 -35.95437116 25.81992725 -40.9375 29.4375 C-50.26457237 36.20719766 -59.67647324 42.85144174 -69.10449219 49.47949219 C-77.10443155 55.10578241 -85.07912504 60.76278215 -93 66.5 C-102.30988792 73.24330241 -111.70052019 79.86834714 -121.10449219 86.47949219 C-129.04315487 92.06268704 -136.95580112 97.67689541 -144.8125 103.375 C-151.99724602 108.58528815 -159.25087183 113.68980729 -166.53173828 118.76464844 C-172.87513911 123.19359393 -179.15696176 127.70183484 -185.41967773 132.24389648 C-193.92268117 138.40564272 -202.51420197 144.44037865 -211.10449219 150.47949219 C-219.04315487 156.06268704 -226.95580112 161.67689541 -234.8125 167.375 C-241.99724602 172.58528815 -249.25087183 177.68980729 -256.53173828 182.76464844 C-262.87513911 187.19359393 -269.15696176 191.70183484 -275.41967773 196.24389648 C-283.92268117 202.40564272 -292.51420197 208.44037865 -301.10449219 214.47949219 C-318.84943794 226.74666841 -318.84943794 226.74666841 -336.1081543 239.66967773 C-338 241 -338 241 -340 241 C-340.309375 241.78375 -340.61875 242.5675 -340.9375 243.375 C-342 246 -342 246 -343 248 C-343.23172827 250.54615009 -343.41894529 253.07396225 -343.5625 255.625 C-343.62727539 256.68460937 -343.62727539 256.68460937 -343.69335938 257.765625 C-343.79944751 259.51018537 -343.90022889 261.25506697 -344 263 C-347.34657726 262.40012093 -350.39414869 261.57759377 -353.56347656 260.35205078 C-354.8901107 259.84243553 -354.8901107 259.84243553 -356.24354553 259.32252502 C-357.19958176 258.95054489 -358.15561798 258.57856476 -359.140625 258.1953125 C-360.15462875 257.80443954 -361.16863251 257.41356659 -362.21336365 257.010849 C-365.56043363 255.71947475 -368.90522722 254.42231136 -372.25 253.125 C-374.59077989 252.22030653 -376.93168329 251.31593257 -379.27270508 250.41186523 C-385.32953353 248.07159499 -391.38440197 245.72629632 -397.43878174 243.37969971 C-401.95025784 241.63184776 -406.46295375 239.88715991 -410.97567749 238.14253235 C-421.20403333 234.18822392 -431.42653476 230.2192575 -441.64437866 226.23786926 C-447.01053342 224.15053856 -452.38542697 222.08902967 -457.77302551 220.05769348 C-460.88788901 218.88164765 -463.99783628 217.69296243 -467.10708618 216.50216675 C-468.51170457 215.96817612 -469.91869472 215.4403739 -471.32821655 214.91946411 C-485.08326276 209.83347449 -485.08326276 209.83347449 -489 202 C-489.52940021 196.68864048 -489.66363629 192.32727259 -487.25 187.5 C-484.09671364 183.99634849 -481.10823659 181.85317826 -476.7019043 180.20092773 C-475.85095184 179.87812332 -474.99999939 179.55531891 -474.1232605 179.22273254 C-473.19957672 178.87981674 -472.27589294 178.53690094 -471.32421875 178.18359375 C-470.34881134 177.81542038 -469.37340393 177.44724701 -468.36843872 177.06791687 C-466.25415613 176.27071592 -464.13875232 175.47648367 -462.02236938 174.68487549 C-458.63668579 173.41849344 -455.25389591 172.14465206 -451.87182617 170.86865234 C-448.36616436 169.54608214 -444.86034701 168.22394495 -441.35365295 166.90411377 C-431.10466006 163.04616815 -420.8748318 159.13949697 -410.65127563 155.21472168 C-405.81639934 153.35875622 -400.98043805 151.50562211 -396.14453125 149.65234375 C-395.16471786 149.27679352 -394.18490448 148.90124329 -393.17539978 148.51431274 C-381.12089854 143.89499677 -369.06048373 139.29116863 -357 134.6875 C-355.8518985 134.24923889 -354.703797 133.81097778 -353.52090454 133.35943604 C-347.68195925 131.13059545 -341.84294922 128.90192452 -336.00390625 126.67333984 C-325.64537432 122.71970858 -315.2874286 118.76454201 -304.92944336 114.80947876 C-299.2029867 112.62292177 -293.47649138 110.43646605 -287.75 108.25 C-285.45833315 107.37500048 -283.16666648 106.50000048 -280.875 105.625 C-239.625 89.875 -198.375 74.125 -157.125 58.375 C-155.99064011 57.94188004 -154.85628021 57.50876007 -153.68754578 57.06251526 C-151.39572849 56.18745923 -149.10390924 55.31240837 -146.81208801 54.43736267 C-141.08520959 52.25076224 -135.35836539 50.06407225 -129.6315918 47.87719727 C-119.29209137 43.92896708 -108.95236142 39.98134436 -98.61131287 36.03717041 C-93.99124456 34.27494822 -89.37141081 32.51211147 -84.7515564 30.74932861 C-81.34482214 29.44982929 -77.93768091 28.15140118 -74.53051758 26.85302734 C-63.3152433 22.57631538 -52.11002066 18.27516453 -40.92292976 13.92528725 C-36.67967744 12.27620142 -32.43459601 10.63182301 -28.19003296 8.9861145 C-24.74661949 7.64797434 -21.30653629 6.30151269 -17.86645508 4.95483398 C-15.79003358 4.14917134 -13.71346325 3.34389216 -11.63671875 2.5390625 C-10.68437347 2.16315475 -9.7320282 1.78724701 -8.75082397 1.39994812 C-7.45237045 0.89960808 -7.45237045 0.89960808 -6.12768555 0.38916016 C-4.99752266 -0.05210709 -4.99752266 -0.05210709 -3.8445282 -0.50228882 C-2 -1 -2 -1 0 0 Z " fill="#94DFDA" transform="translate(489,36)"/>
<path d="M0 0 C1.2375 0.7425 1.2375 0.7425 2.5 1.5 C2.5 5.5 2.5 5.5 0.48046875 7.76171875 C-0.90205078 8.96248047 -0.90205078 8.96248047 -2.3125 10.1875 C-2.81096436 10.62465332 -3.30942871 11.06180664 -3.82299805 11.51220703 C-7.98686318 15.13700327 -12.26483106 18.62453633 -16.55859375 22.09375 C-19.87387977 24.80585649 -23.12869677 27.5810578 -26.375 30.375 C-32.52010166 35.66270409 -38.69685874 40.91112092 -44.89111328 46.14111328 C-47.59572289 48.42546186 -50.29772127 50.71289508 -53 53 C-54.08332099 53.91668126 -55.16665432 54.83334793 -56.25 55.75 C-56.78625 56.20375 -57.3225 56.6575 -57.875 57.125 C-59.5 58.5 -61.125 59.875 -62.75 61.25 C-63.28641113 61.70391113 -63.82282227 62.15782227 -64.37548828 62.62548828 C-65.45709521 63.54064413 -66.53880069 64.4556835 -67.62060547 65.37060547 C-70.35617939 67.68443478 -73.08992474 70.00036471 -75.8203125 72.3203125 C-80.80314347 76.55079624 -85.79702715 80.7585368 -90.875 84.875 C-95.99813067 89.04221124 -100.97594928 93.36312457 -105.95263672 97.70263672 C-110.43731517 101.60409054 -115.00472708 105.38477907 -119.625 109.125 C-123.13547639 112.02495875 -126.56832727 115.00758138 -130 118 C-135.13227656 122.47534516 -140.33185274 126.84007126 -145.625 131.125 C-149.13547753 134.0249597 -152.56829935 137.00761195 -156 140 C-161.15851311 144.49747977 -166.38157094 148.88995452 -171.69921875 153.19921875 C-175.57166793 156.38035204 -179.36728783 159.64753555 -183.16601562 162.91601562 C-188.7141872 167.68974231 -194.29874354 172.41931007 -199.89111328 177.14111328 C-202.59572289 179.42546186 -205.29772127 181.71289508 -208 184 C-209.08332099 184.91668126 -210.16665432 185.83334793 -211.25 186.75 C-211.78625 187.20375 -212.3225 187.6575 -212.875 188.125 C-218.83333333 193.16666667 -224.79166667 198.20833333 -230.75 203.25 C-231.5546167 203.9308667 -231.5546167 203.9308667 -232.37548828 204.62548828 C-233.45709521 205.54064413 -234.53880069 206.4556835 -235.62060547 207.37060547 C-238.35617939 209.68443478 -241.08992474 212.00036471 -243.8203125 214.3203125 C-248.80314347 218.55079624 -253.79702715 222.7585368 -258.875 226.875 C-263.99813067 231.04221124 -268.97594928 235.36312457 -273.95263672 239.70263672 C-278.43731517 243.60409054 -283.00472708 247.38477907 -287.625 251.125 C-291.13548098 254.02496255 -294.56821555 257.0077037 -298 260 C-302.3707893 263.80879932 -306.76012281 267.58112893 -311.25 271.25 C-312.06098145 271.93465332 -312.87196289 272.61930664 -313.70751953 273.32470703 C-316.5 275.5 -316.5 275.5 -319.18603516 276.91259766 C-326.15376075 281.06679382 -328.27340246 285.51299635 -330.2562561 293.1529541 C-331.53111766 298.7692831 -332.65950261 304.40823308 -333.72960663 310.0663147 C-334.39848476 313.54894661 -335.11817586 317.02100827 -335.83447266 320.49414062 C-336.75267404 324.96248922 -337.6653678 329.4317409 -338.55709839 333.90545654 C-340.98093834 346.06386087 -343.54706484 358.18816926 -346.171875 370.3046875 C-346.46641382 371.66490461 -346.46641382 371.66490461 -346.76690292 373.05260086 C-347.55311883 376.68215653 -348.3398931 380.3115902 -349.12771416 383.94079781 C-351.01955424 392.65694874 -352.8938271 401.37683907 -354.7647171 410.09750748 C-355.26478181 412.4284042 -355.76512359 414.75924128 -356.26556396 417.09005737 C-357.01056754 420.55999715 -357.75535874 424.02998245 -358.5 427.5 C-358.83 427.5 -359.16 427.5 -359.5 427.5 C-359.59345268 404.41261686 -359.66398385 381.32526491 -359.70724869 358.23773098 C-359.7278715 347.51771661 -359.75598683 336.79781978 -359.80175781 326.07788086 C-359.84163406 316.7340816 -359.86743486 307.39036747 -359.87635398 298.04648548 C-359.88156737 293.09921134 -359.89381503 288.15218074 -359.92292023 283.20498466 C-359.95010169 278.54696944 -359.95843945 273.88929772 -359.95243073 269.23121071 C-359.95352974 267.52320869 -359.9614674 265.81519501 -359.9768219 264.10726166 C-359.99679323 261.77087209 -359.99191409 259.43577082 -359.98101807 257.09934998 C-359.98470524 255.79316932 -359.98839241 254.48698866 -359.99219131 253.14122677 C-359.31436423 248.12666831 -357.43236353 244.38910368 -353.75512695 240.79418945 C-353.17206787 240.40448975 -352.58900879 240.01479004 -351.98828125 239.61328125 C-351.3219165 239.15638916 -350.65555176 238.69949707 -349.96899414 238.22875977 C-349.25735107 237.76139404 -348.54570801 237.29402832 -347.8125 236.8125 C-346.27580986 235.7659653 -344.73935806 234.71908055 -343.203125 233.671875 C-342.0284668 232.88200195 -342.0284668 232.88200195 -340.83007812 232.07617188 C-337.20414381 229.62342335 -333.63408576 227.09343634 -330.0625 224.5625 C-329.36487549 224.07048096 -328.66725098 223.57846191 -327.94848633 223.0715332 C-322.77237795 219.41749586 -317.63126911 215.71666122 -312.5 212 C-303.19011208 205.25669759 -293.79947981 198.63165286 -284.39550781 192.02050781 C-276.39556845 186.39421759 -268.42087496 180.73721785 -260.5 175 C-251.19011208 168.25669759 -241.79947981 161.63165286 -232.39550781 155.02050781 C-224.45684513 149.43731296 -216.54419888 143.82310459 -208.6875 138.125 C-201.50275398 132.91471185 -194.24912817 127.81019271 -186.96826172 122.73535156 C-180.62486089 118.30640607 -174.34303824 113.79816516 -168.08032227 109.25610352 C-159.57731883 103.09435728 -150.98579803 97.05962135 -142.39550781 91.02050781 C-134.39556845 85.39421759 -126.42087496 79.73721785 -118.5 74 C-109.19011208 67.25669759 -99.79947981 60.63165286 -90.39550781 54.02050781 C-82.45684513 48.43731296 -74.54419888 42.82310459 -66.6875 37.125 C-60.33572156 32.51876955 -53.93673223 27.98669692 -47.5 23.5 C-40.8183087 18.8406565 -34.1686354 14.14097114 -27.5625 9.375 C-26.82322266 8.84261719 -26.08394531 8.31023438 -25.32226562 7.76171875 C-22.38038743 5.63261993 -19.49525793 3.49611953 -16.68359375 1.1953125 C-11.61050613 -2.74336376 -5.62577599 -2.41104685 0 0 Z " fill="#EDF3FE" transform="translate(504.5,34.5)"/>
<path d="M0 0 C1.25541557 3.76624671 0.37061958 5.37188934 -1 9 C-2.1875 7.3125 -2.1875 7.3125 -3 5 C-1.625 2.25 -1.625 2.25 0 0 Z " fill="#6FB2C9" transform="translate(510,55)"/>
</svg>
