<?xml version="1.0" encoding="UTF-8"?>
<svg version="1.1" xmlns="http://www.w3.org/2000/svg" width="512" height="512">
<path d="M0 0 C1.36565698 4.09697095 0.16342199 5.63632509 -1.515625 9.5859375 C-1.79789444 10.25739304 -2.08016388 10.92884857 -2.37098694 11.62065125 C-3.32169751 13.87600544 -4.28592298 16.12533051 -5.25 18.375 C-5.93083115 19.98326208 -6.6107419 21.59191407 -7.28979492 23.20092773 C-8.75165999 26.66042423 -10.21914751 30.11746 -11.69091797 33.57275391 C-14.00449452 39.00597703 -16.3028545 44.44554356 -18.59765625 49.88671875 C-19.37791477 51.73649718 -20.15818831 53.58626927 -20.93847656 55.43603516 C-21.5234491 56.82281464 -21.5234491 56.82281464 -22.12023926 58.23760986 C-23.32480764 61.09166119 -24.53082243 63.94509708 -25.73730469 66.79833984 C-31.18667783 79.68706179 -36.60362335 92.58900817 -42 105.5 C-48.11857016 120.13656975 -54.26370111 134.76163716 -60.4375 149.375 C-60.83081512 150.30600525 -61.22413025 151.2370105 -61.62936401 152.19622803 C-64.81767347 159.7424077 -68.00773893 167.28784476 -71.19787598 174.83325195 C-82.13595351 200.70513324 -93.03278643 226.5936169 -103.86708069 252.50914001 C-107.44689419 261.07117725 -111.03505376 269.62970728 -114.625 278.1875 C-114.90575378 278.85682556 -115.18650757 279.52615112 -115.47576904 280.21575928 C-116.98364825 283.81058918 -118.491712 287.4053416 -120 291 C-124.47714687 290.37773083 -128.14384039 288.61447592 -132.1171875 286.5703125 C-132.80234436 286.22424454 -133.48750122 285.87817657 -134.19342041 285.5216217 C-135.6610198 284.77976975 -137.12729226 284.03528792 -138.59234619 283.28842163 C-142.44589495 281.3243472 -146.30926368 279.3797679 -150.171875 277.43359375 C-150.93738678 277.04732315 -151.70289856 276.66105255 -152.49160767 276.26307678 C-158.66360062 273.15424352 -164.8773171 270.14141606 -171.125 267.1875 C-179.80607376 263.07720771 -188.40289425 258.81688001 -196.98242188 254.49902344 C-206.0061573 249.96940411 -215.10587892 245.60769712 -224.2265625 241.27734375 C-227.84031387 239.56049535 -231.4311188 237.80815409 -235 236 C-233.4703688 232.38619416 -231.3248309 230.0757426 -228.56137085 227.31413269 C-228.10794866 226.85829609 -227.65452647 226.40245948 -227.18736422 225.93280965 C-225.66917686 224.40899388 -224.14395648 222.89242193 -222.61865234 221.37573242 C-221.52748077 220.28348769 -220.43674235 219.19081008 -219.34640503 218.09773254 C-216.38370786 215.1301868 -213.41479489 212.1689321 -210.4446063 209.20888686 C-207.33271733 206.10578889 -204.22610911 202.99741245 -201.11880493 199.88972473 C-195.89494399 194.66680065 -190.66722441 189.44776422 -185.43701172 184.23120117 C-179.40351132 178.21338947 -173.37521587 172.19040468 -167.34992254 166.16437644 C-160.92381841 159.73759454 -154.4939023 153.3146368 -148.06287813 146.89277864 C-146.21694752 145.04897185 -144.37172163 143.20446232 -142.52665329 141.35979271 C-139.61519721 138.44934787 -136.70117996 135.54149052 -133.78523636 132.63554192 C-132.72022859 131.57343353 -131.65604088 130.51050206 -130.59277344 129.44665146 C-121.57847211 120.4292798 -121.57847211 120.4292798 -117.00772095 116.50970459 C-111.63889598 111.90185186 -106.70914797 106.84056641 -101.71875 101.83227539 C-100.60449871 100.7177415 -99.49002613 99.6034288 -98.37535095 98.48931885 C-95.37161194 95.48586497 -92.37095095 92.47935331 -89.37086105 89.47225499 C-86.22699011 86.32210309 -83.08025847 83.17481134 -79.93383789 80.02720642 C-73.98575263 74.07602177 -68.04021957 68.12229419 -62.09561443 62.16763347 C-55.32366326 55.38447779 -48.54884859 48.60418514 -41.7737999 41.8241235 C-27.84602651 27.88591727 -13.92182702 13.94414545 0 0 Z " fill="#474747" transform="translate(450,77)"/>
<path d="M0 0 C0.66 0.33 1.32 0.66 2 1 C-4.27386541 6.26341112 -10.78493558 10.98580921 -17.55297852 15.58154297 C-22.74498887 19.11506966 -27.8561995 22.74674986 -32.9375 26.4375 C-38.76274559 30.66729219 -44.6102653 34.86043603 -50.5 39 C-56.3649726 43.12377698 -62.19425605 47.293256 -68 51.5 C-77.30975489 58.24348241 -86.70052336 64.86834937 -96.10449219 71.47949219 C-104.86878716 77.6433473 -113.59275544 83.85741881 -122.26928711 90.14428711 C-128.01573517 94.30294164 -133.80302685 98.40045858 -139.60546875 102.48046875 C-144.7656687 106.11454672 -149.88921666 109.79681272 -155 113.5 C-164.30975489 120.24348241 -173.70052336 126.86834937 -183.10449219 133.47949219 C-191.86878716 139.6433473 -200.59275544 145.85741881 -209.26928711 152.14428711 C-215.01062907 156.2992464 -220.79257661 160.39341416 -226.59008789 164.46948242 C-231.11143763 167.65339096 -235.60849554 170.86875123 -240.08691406 174.11279297 C-241.63886414 175.23500698 -243.19415076 176.35262291 -244.75292969 177.46533203 C-247.87903473 179.70129888 -250.92091735 181.93343248 -253.86328125 184.41015625 C-258.45927358 188.19376368 -261.29354607 189.36659267 -267.29272461 188.8046875 C-268.53432343 188.68883301 -269.77592224 188.57297852 -271.05514526 188.45361328 C-277.74670545 187.68416022 -284.40679563 186.75211553 -291.06640625 185.75 C-292.55893357 185.52920293 -294.05152427 185.30883392 -295.54417419 185.08886719 C-298.64133567 184.63139977 -301.73797849 184.17062685 -304.83422852 183.70703125 C-308.7942961 183.11411285 -312.75518475 182.52691957 -316.71641636 181.9418335 C-320.5208513 181.37971731 -324.32490577 180.81504775 -328.12890625 180.25 C-328.84732759 180.14345093 -329.56574894 180.03690186 -330.30594063 179.92712402 C-332.34162236 179.62468346 -334.37702859 179.32045643 -336.41235352 179.015625 C-337.56703629 178.84321289 -338.72171906 178.67080078 -339.91139221 178.49316406 C-342.62520637 178.05984403 -345.31034377 177.5622342 -348 177 C-348 176.34 -348 175.68 -348 175 C-347.23775006 174.61956637 -347.23775006 174.61956637 -346.46010113 174.23144722 C-334.00121597 168.01312609 -321.54348673 161.79249434 -309.08698559 155.56939888 C-303.06269056 152.55981164 -297.03800422 149.55101319 -291.01245117 146.54394531 C-285.18247867 143.63444699 -279.35352511 140.72291632 -273.52523232 137.81005478 C-271.3167975 136.7067514 -269.10801466 135.60414435 -266.89885521 134.50229263 C-263.7716939 132.94241521 -260.6458534 131.37991814 -257.52026367 129.81689453 C-256.63479858 129.37595963 -255.7493335 128.93502472 -254.83703613 128.48072815 C-248.81746317 125.46626322 -242.8567202 122.34919001 -236.90571594 119.20236206 C-227.6633066 114.31988247 -218.34352893 109.60706411 -208.98828125 104.9453125 C-207.28224819 104.09325934 -205.57630834 103.24101952 -203.87045288 102.38861084 C-200.24000851 100.57495086 -196.60895053 98.76252777 -192.97738647 96.95111084 C-187.21466803 94.07660549 -181.45354289 91.19891653 -175.69262695 88.32080078 C-162.42676496 81.69384909 -149.15888502 75.07094158 -135.89097595 68.4480896 C-123.71472589 62.37010073 -111.53892275 56.2912208 -99.36474514 50.20908165 C-93.65823434 47.35829099 -87.95075974 44.50944267 -82.24249268 41.66217041 C-78.6703915 39.87989499 -75.09915261 38.09589688 -71.52812576 36.31147003 C-69.89486656 35.4957627 -68.26126761 34.68073515 -66.62726974 33.86650848 C-56.47630106 28.80767972 -46.40286274 23.61988073 -36.38095093 18.30976868 C-29.96196383 14.91352022 -23.49231062 11.61751949 -17.00463867 8.35473633 C-15.59435775 7.64368291 -14.18589936 6.929006 -12.77905273 6.21118164 C-10.69892922 5.15003835 -8.61388738 4.09923195 -6.52734375 3.05078125 C-5.89730942 2.72701004 -5.26727509 2.40323883 -4.6181488 2.06965637 C-3.10781418 1.31830353 -1.55644532 0.65047655 0 0 Z " fill="#484848" transform="translate(409,89)"/>
<path d="M0 0 C0.66 0.33 1.32 0.66 2 1 C-11.54906924 14.57246789 -25.10102943 28.14204277 -38.65640259 41.70821476 C-44.95084875 48.0078091 -51.24435862 54.30833343 -57.53564453 60.61108398 C-63.02148576 66.10691729 -68.50910443 71.60096861 -73.99883175 77.09292024 C-76.90337713 79.99876506 -79.80704717 82.90547218 -82.70858765 85.8143177 C-85.44453692 88.55709867 -88.18287251 91.29747504 -90.92298698 94.03609467 C-91.92351754 95.03689836 -92.92320379 96.03854703 -93.92193794 97.04114342 C-98.79901236 101.93613729 -103.71391992 106.69691432 -108.95584869 111.19874859 C-113.21384693 114.95078265 -117.23750152 118.95536655 -121.29980469 122.91650391 C-122.30920233 123.89828831 -123.31865941 124.8800116 -124.32817078 125.86167908 C-133.50389148 134.79317557 -142.62838982 143.77700052 -151.73839951 152.7754612 C-157.84577504 158.80630388 -163.96822325 164.8200384 -170.13134766 170.79394531 C-175.53290183 176.02969417 -180.90305502 181.29542303 -186.23861432 186.59843957 C-189.05365286 189.39435195 -191.88096034 192.17415475 -194.74642181 194.91844559 C-207.12060516 206.79021259 -217.18157051 216.75249351 -217.89020729 234.84148407 C-218.05219412 238.02613223 -218.63831902 241.06389481 -219.23046875 244.1953125 C-219.5521927 246.17143513 -219.87133689 248.14798006 -220.1875 250.125 C-220.51207167 252.14879983 -220.83878911 254.17225706 -221.16796875 256.1953125 C-221.30485107 257.05141113 -221.4417334 257.90750977 -221.58276367 258.78955078 C-222 261 -222 261 -223 264 C-223.66 264 -224.32 264 -225 264 C-225.3309668 263.35788574 -225.66193359 262.71577148 -226.00292969 262.05419922 C-231.87923793 250.66758816 -237.77940891 239.2997629 -243.9375 228.0625 C-244.41380859 227.19246338 -244.89011719 226.32242676 -245.38085938 225.42602539 C-247.54743222 221.47131254 -249.71593446 217.51765998 -251.88525391 213.56445312 C-253.52663044 210.57060045 -255.16079121 207.57288934 -256.79104614 204.57296753 C-257.73367627 202.84246745 -258.68306533 201.11565458 -259.63256836 199.38891602 C-260.48733765 197.81388306 -260.48733765 197.81388306 -261.359375 196.20703125 C-261.86952148 195.2735083 -262.37966797 194.33998535 -262.90527344 193.37817383 C-264 191 -264 191 -264 188 C-261.58268932 186.07227123 -259.18667608 184.34243675 -256.625 182.625 C-255.05392355 181.5453817 -253.48363594 180.46461475 -251.9140625 179.3828125 C-251.09969727 178.8249707 -250.28533203 178.26712891 -249.44628906 177.69238281 C-245.58671308 175.02226498 -241.79474482 172.26109854 -238 169.5 C-231.49913524 164.78725842 -224.95958003 160.13388446 -218.39013672 155.51733398 C-213.26780058 151.9116111 -208.19162055 148.24596288 -203.125 144.5625 C-196.94841239 140.07451931 -190.69654921 135.71858153 -184.375 131.4375 C-177.7891414 126.97553076 -171.38315223 122.3421949 -165.05810547 117.51928711 C-159.98327899 113.67500829 -154.77441809 110.06426808 -149.5 106.5 C-142.799026 101.97156792 -136.27896458 97.27330066 -129.84326172 92.37670898 C-124.71407181 88.49109481 -119.45926007 84.82807647 -114.13769531 81.2121582 C-108.27326797 77.21724872 -102.52334469 73.07533553 -96.78173828 68.90649414 C-91.71542601 65.23083843 -86.62091763 61.59914111 -81.5 58 C-75.69599887 53.91975366 -69.92999963 49.79132403 -64.1875 45.625 C-57.0028574 40.41457223 -49.74912513 35.31019059 -42.46826172 30.23535156 C-36.13736819 25.81513864 -29.86707424 21.31693412 -23.61767578 16.7824707 C-15.79768161 11.11371794 -7.90303767 5.55213406 0 0 Z " fill="#7A7A7A" transform="translate(418,95)"/>
<path d="M0 0 C5.16836955 1.55985562 9.8535237 3.75554171 14.6796875 6.1328125 C15.49245148 6.52951141 16.30521545 6.92621033 17.14260864 7.33493042 C19.72180012 8.59478952 22.29842014 9.85980978 24.875 11.125 C26.63004073 11.98341568 28.38524735 12.84149227 30.140625 13.69921875 C34.42901373 15.79555867 38.71510485 17.89652906 43 20 C43 20.99 43 21.98 43 23 C42.26177002 23.34144043 41.52354004 23.68288086 40.76293945 24.03466797 C37.27890711 25.64692075 33.79551747 27.26055628 30.3125 28.875 C29.36834732 29.3125209 29.36834732 29.3125209 28.40512085 29.75888062 C18.95072512 34.14208104 9.52303844 38.57689787 0.13598633 43.10302734 C-0.66556885 43.48797363 -1.46712402 43.87291992 -2.29296875 44.26953125 C-3.33747192 44.77383667 -3.33747192 44.77383667 -4.40307617 45.28833008 C-6 46 -6 46 -7 46 C-6.44070668 35.92534501 -4.7472861 26.1553192 -2.9375 16.25 C-2.65248409 14.66675852 -2.36797542 13.08342564 -2.08398438 11.5 C-1.39515454 7.66558993 -0.69951287 3.83247492 0 0 Z " fill="#7A7A7A" transform="translate(210,320)"/>
<path d="M0 0 C1.11375 0.185625 2.2275 0.37125 3.375 0.5625 C5.55575741 3.83363611 5.74913269 4.77764416 5.375 8.5625 C4.52734375 10.61352539 4.52734375 10.61352539 3.3125 12.66015625 C2.85302979 13.4483374 2.39355957 14.23651855 1.92016602 15.04858398 C1.15530884 16.32390991 1.15530884 16.32390991 0.375 17.625 C-0.72090768 19.49168545 -1.81590959 21.35890287 -2.91015625 23.2265625 C-3.5045752 24.23493164 -4.09899414 25.24330078 -4.71142578 26.28222656 C-6.77731111 29.82359365 -8.79801061 33.38801363 -10.80859375 36.9609375 C-11.52137736 38.22393736 -12.23426783 39.48687691 -12.94726562 40.74975586 C-13.99847646 42.61184303 -15.04829273 44.47462778 -16.09301758 46.34036255 C-23.47391857 59.50592655 -23.47391857 59.50592655 -27.625 63.5625 C-32.72303922 63.46446078 -32.72303922 63.46446078 -34.625 61.5625 C-35.01844773 56.3481229 -34.35749894 53.22212966 -31.765625 48.7109375 C-31.14985596 47.62192139 -30.53408691 46.53290527 -29.8996582 45.41088867 C-29.22512796 44.25288511 -28.5502342 43.09509322 -27.875 41.9375 C-27.19032856 40.73944259 -26.50699189 39.54062145 -25.82495117 38.34106445 C-24.44068931 35.9119267 -23.04811584 33.48787508 -21.64794922 31.06787109 C-19.77785157 27.83378838 -17.93407804 24.58537693 -16.09765625 21.33203125 C-10.28632135 11.05998139 -10.28632135 11.05998139 -7.625 6.5625 C-7.26535156 5.94205811 -6.90570313 5.32161621 -6.53515625 4.68237305 C-4.05362789 0.62901122 -4.05362789 0.62901122 0 0 Z " fill="#474747" transform="translate(152.625,349.4375)"/>
<path d="M0 0 C1 1 1 1 1.41796875 3.875 C1.31808688 9.57260933 -1.93465452 14.18310513 -4.6875 19 C-5.26677246 20.04003174 -5.84604492 21.08006348 -6.44287109 22.15161133 C-8.28082869 25.44273977 -10.13952422 28.72155827 -12 32 C-13.21846702 34.170001 -14.43593271 36.34056459 -15.65234375 38.51171875 C-21.85304434 49.55272275 -21.85304434 49.55272275 -25 55 C-25.71518799 56.36668823 -25.71518799 56.36668823 -26.44482422 57.76098633 C-27.21463623 58.8692981 -27.21463623 58.8692981 -28 60 C-31.5625 60.5 -31.5625 60.5 -35 60 C-37 57 -37 57 -36.82348633 54.21313477 C-35.90966676 50.64753165 -34.57110811 47.82949036 -32.82421875 44.58984375 C-32.34190041 43.6879129 -32.34190041 43.6879129 -31.84983826 42.76776123 C-30.80455287 40.81943277 -29.74664223 38.87832545 -28.6875 36.9375 C-27.96234102 35.59566797 -27.23757161 34.25362534 -26.51318359 32.91137695 C-22.12199389 24.797501 -17.66727053 16.71780151 -13.125 8.6875 C-12.38576294 7.3735022 -12.38576294 7.3735022 -11.6315918 6.03295898 C-10.95157104 4.84682007 -10.95157104 4.84682007 -10.2578125 3.63671875 C-9.8673877 2.95311279 -9.47696289 2.26950684 -9.07470703 1.56518555 C-6.61960113 -2.01039008 -3.79209072 -0.80682781 0 0 Z " fill="#7A7A7A" transform="translate(128,305)"/>
<path d="M0 0 C3 0.25 3 0.25 5 2.25 C5.85628659 8.00182407 3.51603115 11.8288099 0.8125 16.6875 C0.37341309 17.49791748 -0.06567383 18.30833496 -0.51806641 19.14331055 C-1.99570871 21.85488411 -3.49537856 24.55330909 -5 27.25 C-5.834104 28.75191895 -5.834104 28.75191895 -6.68505859 30.28417969 C-10.40470968 36.96886119 -14.12727599 43.65248402 -18 50.25 C-18.3830127 50.90339355 -18.76602539 51.55678711 -19.16064453 52.22998047 C-20.1875 53.88671875 -20.1875 53.88671875 -22 56.25 C-25.125 56.75 -25.125 56.75 -28 56.25 C-30 54.25 -30 54.25 -30.32397461 51.02905273 C-29.96089809 46.79388966 -28.91045997 44.46220341 -26.81640625 40.78515625 C-26.48524307 40.19389954 -26.1540799 39.60264282 -25.81288147 38.99346924 C-24.74332106 37.09155038 -23.65346363 35.20220807 -22.5625 33.3125 C-21.82402553 32.00946198 -21.0868869 30.705666 -20.35107422 29.40112305 C-18.90417848 26.84051416 -17.44965042 24.28451735 -15.98779297 21.73242188 C-14.30274465 18.78766171 -12.64518479 15.82881241 -11.00390625 12.859375 C-10.59132568 12.11421631 -10.17874512 11.36905762 -9.75366211 10.60131836 C-9.02339353 9.28215917 -8.29369998 7.96268143 -7.56469727 6.64282227 C-4.0267863 0.33556552 -4.0267863 0.33556552 0 0 Z " fill="#7A7A7A" transform="translate(244,375.75)"/>
<path d="M0 0 C1.1149585 0.17789062 2.22991699 0.35578125 3.37866211 0.5390625 C5.37866211 3.5390625 5.37866211 3.5390625 5.19946289 6.34716797 C4.30434313 9.82807094 3.01382602 12.4825529 1.24584961 15.609375 C0.60389648 16.7540625 -0.03805664 17.89875 -0.69946289 19.078125 C-1.3816131 20.27351824 -2.06390525 21.46883048 -2.74633789 22.6640625 C-3.4059936 23.8354865 -4.06485406 25.00735868 -4.72290039 26.1796875 C-6.0274325 28.49944889 -7.34468987 30.81040042 -8.66894531 33.11914062 C-9.97876489 35.41349509 -11.26783294 37.71981216 -12.53662109 40.03710938 C-13.44287231 41.66616211 -13.44287231 41.66616211 -14.36743164 43.328125 C-14.90037842 44.30217285 -15.4333252 45.2762207 -15.98242188 46.27978516 C-17.62133789 48.5390625 -17.62133789 48.5390625 -19.60205078 49.50537109 C-21.55883789 49.7890625 -21.55883789 49.7890625 -24.62133789 49.5390625 C-26.18383789 47.8515625 -26.18383789 47.8515625 -27.62133789 45.5390625 C-27.22250017 41.35194092 -25.55927807 38.23772292 -23.52368164 34.6015625 C-22.88624023 33.45816406 -22.24879883 32.31476563 -21.59204102 31.13671875 C-21.25696533 30.54391113 -20.92188965 29.95110352 -20.57666016 29.34033203 C-19.57967048 27.57593053 -18.59277095 25.8062149 -17.60766602 24.03515625 C-15.97771358 21.11350205 -14.31140364 18.21435589 -12.63470459 15.31933594 C-11.58938053 13.4829201 -10.58757363 11.62656492 -9.58666992 9.765625 C-8.91306139 8.56452402 -8.23845439 7.36398236 -7.56274414 6.1640625 C-6.97307861 5.08382813 -6.38341309 4.00359375 -5.77587891 2.890625 C-3.62133789 0.5390625 -3.62133789 0.5390625 0 0 Z " fill="#474747" transform="translate(185.621337890625,385.4609375)"/>
</svg>
